<svg width="200" height="60" viewBox="0 0 200 60" xmlns="http://www.w3.org/2000/svg">
  <path d="M 10 10 L 10 50 L 30 50 L 30 40 L 20 40 L 20 35 L 30 35 L 30 25 L 20 25 L 20 20 L 30 20 L 30 10 Z" fill="white"/>
  <path d="M 35 10 L 45 50 L 55 10 L 50 10 L 42 45 L 38 45 L 30 10 Z" fill="white"/>
  <path d="M 60 10 L 60 50 L 70 50 L 70 10 Z" fill="white"/>
  <circle cx="95" cy="30" r="20" fill="none" stroke="white" stroke-width="3"/>
  <line x1="75" y1="30" x2="115" y2="30" stroke="white" stroke-width="2"/>
  <line x1="95" y1="10" x2="95" y2="50" stroke="white" stroke-width="2"/>
  <path d="M 120 10 L 140 10 L 140 20 L 130 20 L 130 25 L 140 25 L 140 40 L 120 40 L 120 50 L 140 50 L 140 45 L 130 45 L 130 35 L 120 35 Z" fill="white"/>
</svg>
